<svg version="1" xmlns="http://www.w3.org/2000/svg" width="337.333" height="337.333" viewBox="0 0 253.000000 253.000000"><path d="M88.7 65.6c-6 3.5-11 6.4-11.3 6.4-.2 0-.4-1.1-.4-2.5 0-1.8-.5-2.5-2-2.5-1.3 0-2-.7-2-2 0-1.7-.7-2-4-2s-4 .3-4 2c0 1.5-.7 2-2.5 2-2.5 0-2.5.2-2.5 7.7v7.8L39.5 94.4c-11.3 6.5-21 12.7-21.6 13.8-2.2 4.1 1.2 9.8 5.9 9.8 1.7 0 16.8-8.2 40.5-22 20.8-12.1 38.2-22 38.7-22 .4 0 17.9 9.9 38.7 22 40.7 23.8 41.6 24.2 45.6 18.9 4.3-5.8 3.8-6.2-40.8-32.1C116.1 65 104.9 59 102.6 59.1c-1.9 0-7.2 2.5-13.9 6.5z"/><path d="M222 62.7c-3.5 1.2-8.6 1.5-22.5 1.3-11-.1-17.6.2-17 .8.6.5 5.1 2.6 10 4.6 5 2.1 9.3 4.1 9.8 4.5.4.4-.4 2.2-1.8 4.1-1.3 1.8-2.6 3.7-2.8 4.3-.1.5-7.9-3.3-17.2-8.6l-17-9.5-16.3-.7c-10-.4-16.2-.3-15.8.3.3.5 13.4 8.3 29.1 17.2 21.6 12.3 28.9 16 29.7 15.2 2.1-2.1 2.5-1.3 2.6 5.5 0 4.3.8 9 2.2 12.8 1.1 3.3 2.5 7.3 2.9 9 .5 1.6 1.2 3.7 1.6 4.6.5 1.3-1.5 3.4-8 8.5-4.7 3.8-9 7-9.4 7.2-.5.2-1.2-1-1.6-2.5-1-4.4-5.4-9.3-9.9-11.4-3.5-1.6-6.6-1.9-20.2-1.9h-16.2l-.7 14.2c-.3 7.9-.5 21.9-.3 31.3l.3 17 6.8.3 6.7.3v-21.3c0-11.7.3-23 .6-25.1l.7-3.7h6.7c5.2 0 7.3.5 9.3 2 3.3 2.6 4.1 6.3 2.2 10-1.5 2.8-3 3.6-8.5 4.2-2.4.3-2.5.6-2.7 7.8l-.2 7.5 5.7 9 5.8 9 7.7.3c5.8.2 7.7 0 7.7-1 0-.7-2.9-5.8-6.5-11.2l-6.4-10 2.9-1.8c1.6-.9 4.2-3.5 5.8-5.7 1.6-2.2 7.4-8.2 12.8-13.3 15.7-14.7 12.7-13.6 23.5-8.4 10.5 5 19.7 7.3 20.6 5 1-2.7-.6-4.1-5.2-4.7-10.7-1.5-23.1-11.3-28.3-22.5-2.3-4.9-2.7-7-2.7-15.2 0-8.5.3-10.1 2.9-15.5 5.4-11 16.5-19 28-20.2 5.1-.5 5.6-.8 5.6-2.9 0-2.2-.4-2.4-4.2-2.3-2.4 0-6.3.7-8.8 1.6z"/><path d="M218 81.5c-1 1.2-1.6 1.3-2.6.4-2.5-2.1-4.4-.2-4.4 4.1 0 2.9-.8 5.1-2.5 7.4-2.9 3.8-3.1 4.6-1 4.6 1.2 0 1.5 1.8 1.5 9.8v9.8l11.5 9.3c6.4 5 12.2 9.4 13 9.8 2.3.8 2.2-36.9 0-38.7-.8-.7-1.5-1.6-1.5-2.1s.7-.9 1.5-.9c1.8 0 1.9-1.4.5-4.1-.7-1.3-.7-1.9 0-1.9.5 0 1-1.5 1-3.4v-3.4l-6.2-.7c-3.5-.3-7-.8-7.9-1.1-.9-.2-2.2.2-2.9 1.1zm8.1 2.5c2.3 1.9 2.3 1.9.4 2-2.1 0-4.5-1.7-4.5-3.2 0-1.4 1.7-.9 4.1 1.2zm6.9.5c1 1.2.9 1.5-.8 1.5-1.1 0-2.5-.7-3.2-1.5-1-1.2-.9-1.5.8-1.5 1.1 0 2.5.7 3.2 1.5zm-14 5.1c0 1.4-.4 2.3-1 1.9-.5-.3-1-1.5-1-2.6 0-1 .5-1.9 1-1.9.6 0 1 1.2 1 2.6zm4.8 1.2c.3 1.6-.1 2-1.2 1.6-1.9-.7-2.2-4.8-.3-4.2.6.3 1.3 1.4 1.5 2.6zm8.2-.3c1.1 1.3.9 1.5-1.3 1.5-1.4 0-2.7-.7-3.1-1.5-.3-1 .1-1.5 1.3-1.5 1 0 2.4.7 3.1 1.5zm-8.7 6.6l9.7 2.1v35.9l-3.3-2.6-3.4-2.5-.7-13.7c-.4-7.6-1-14.1-1.4-14.4-.4-.4-2.1-1-3.9-1.4l-3.2-.6-.3 11-.3 11-3.2-2.5-3.3-2.5v-11.5c0-10.5.2-11.5 1.8-11 .9.2 6.1 1.4 11.5 2.7zM97 88l-5.5 2.9h23L109 88c-3-1.6-5.7-2.9-6-2.9-.3 0-3 1.3-6 2.9zM75 98.9l-5.5 3h67l-5-2.6c-4.9-2.5-5.5-2.6-28-3l-23-.4-5.5 3zM52 110.5l-4.5 2.4 54.8.1c30.1 0 54.7-.2 54.7-.5 0-.2-1.8-1.4-4-2.5-3.8-1.9-5.7-2-50.2-2l-46.3.1-4.5 2.4zM26.6 128.2c-.7 2.3-1.7 59.4-1 61.2.5 1.2 2 1.6 6.9 1.6 7.4 0 7.5-.2 7.5-11.8V172h6.3c3.5 0 8.6-.7 11.3-1.5 17.5-5.2 19.5-32 3.1-40.7-3.7-2-6.1-2.3-18.9-2.6-11.7-.3-14.9-.1-15.2 1zm28.9 15.3c2.5 2.4 3.3 7.3 1.9 11-1 2.6-5.9 4.5-11.9 4.5H40v-18h6.5c5.7 0 6.9.3 9 2.5zM78.4 128.4c-.3.7-.4 3.8-.2 6.7l.3 5.4 7.7.3 7.8.3.2 24.7.3 24.7h13l.3-24.8.2-24.7h7.9c6.3 0 8-.3 8.5-1.6 1-2.7.7-9.9-.6-11.2-1.9-1.9-44.7-1.7-45.4.2z"/></svg>